<svg width="318" height="58" xmlns="http://www.w3.org/2000/svg">
  <path d="
    M 30 5
    l 0 10
    c 0 -10 -22 -10 -22 10
    c 0 20 28 20 28 10

    l 0 -30
    l 0 25
    c 0 -10 16 -10 16 0
    l 0 13
    
    m 24 -13
    c 0 -15 -18 -15 -18 0
    c 0 15 18 15 18 0
    m 5 10
    c -5 0 -5 -20 0 -20

    m 2 0
    l 20 0
    m -11 -8
    l 0 25
    c 0 5 5 8 13 5

    m -3 -22
    l 20 0
    m -11 -8
    l 0 25
    c 0 5 5 8 13 5

    m 3 -13
    l 20 0
    c 0 -15 -20 -15 -20 0
    c 0 15 15 15 20 10

    m 24 -16
    c 0 -8 -18 -8 -18 0
    c 0 7 18 7 18 14
    c 0 8 -18 8 -18 0

    m 22 -17
    l 20 0
    m -11 -8
    l 0 25
    c 0 5 5 8 13 5
    

    m 38 -37
    l 0 10
    c 0 -10 -22 -10 -22 10
    c 0 20 28 20 28 10

    l 0 -30
    l 0 25
    c 0 -10 16 -10 16 0
    l 0 13
    
    m 24 -13
    c 0 -15 -18 -15 -18 0
    c 0 15 18 15 18 0
    m 5 10
    c -5 0 -5 -20 0 -20

    m 5 -2
    l 0 32
    m 0 -20
    c 0 -15 18 -15 18 0
    c 0 15 -18 15 -18 0
  " stroke="black" fill="none" stroke-width="4" />
</svg>